<!DOCTYPE svg PUBLIC "-//W3C//DTD SVG 1.1//EN" "http://www.w3.org/Graphics/SVG/1.1/DTD/svg11.dtd">
<!-- Uploaded to: SVG Repo, www.svgrepo.com, Transformed by: SVG Repo Mixer Tools -->
<svg fill="#ffffff" version="1.1" id="Capa_1" xmlns="http://www.w3.org/2000/svg" xmlns:xlink="http://www.w3.org/1999/xlink" width="800px" height="800px" viewBox="0 0 322.303 322.303" xml:space="preserve">
<g id="SVGRepo_bgCarrier" stroke-width="0"/>
<g id="SVGRepo_tracerCarrier" stroke-linecap="round" stroke-linejoin="round"/>
<g id="SVGRepo_iconCarrier"> <g> <g> <path d="M319.247,39.885c-10.527,4.743-18.626-1.513-18.626-1.513s-6.929,6.527-12.334,1.16 c-5.406-5.364,3.992-13.474,3.992-13.474c-6.54-10.519,15.395-26.745,7.249-24.852c-8.145,1.893-18.967,7.837-18.967,7.837 c-4.153,31.201-40.001,47.468-40.001,47.468c4.847,5.6,2.63,11.187-0.067,14.895l-4.127,4.362l0,0l-39.328,41.573 c-2.656,0.401-5.438,0.497-8.166-0.018c0,0-43.051,20.221-74.415,20.961c0,0-29.2,44.397-77.664,37.324 c0,0-36.77,45.235-36.793,66.58c0,0,32.607-54.583,74.479-35.957c0,0,0.741-18.123,35.944,0.058 c35.203,18.175,10.615,42.471,4.771,42.615c0,0,32.917,20.459-30.458,72.344c0,0,41.275-6.369,45.555-17.036 s8.547-12.091,16.019-8.88c0,0,14.496-52.605,54.948-77.703c0,0-19.232-13.143,2.853-43.015c0,0-11.34-7.146,6.835-39.442 l41.86-44.247c8.27-8.776,20.826-2.446,20.826-2.446c1.75-11.224,15.39-26.3,26.149-29.023 C310.558,56.734,329.779,35.136,319.247,39.885z"/> </g> </g> </g>
</svg>